<svg width="61" height="61" viewBox="0 0 61 61" fill="none" xmlns="http://www.w3.org/2000/svg">
<path d="M15.0784 1.90625C11.3993 1.90625 8.4256 4.89908 8.4256 8.55904C8.4256 12.2381 11.3993 15.2118 15.0784 15.2118C18.7385 15.2118 21.7313 12.2381 21.7313 8.55904C21.7313 4.89908 18.7385 1.90625 15.0784 1.90625Z" fill="#D7FF38"/>
<path d="M3.8125 31.6437H26.3253C27.3928 31.6437 28.2316 30.7858 28.2316 29.7374C28.2316 22.5508 22.3794 16.6987 15.1928 16.6987H14.9451C7.75846 16.6987 1.90625 22.5508 1.90625 29.7374C1.90625 30.7858 2.76408 31.6437 3.8125 31.6437Z" fill="#D7FF38"/>
<path d="M45.9216 29.356C42.2616 29.356 39.2687 32.3488 39.2687 36.0089C39.2687 39.6879 42.2616 42.6617 45.9216 42.6617C49.6007 42.6617 52.5744 39.6879 52.5744 36.0089C52.5744 32.3488 49.6007 29.356 45.9216 29.356Z" fill="#D7FF38"/>
<path d="M34.6747 59.094H57.1875C58.2359 59.094 59.0937 58.2362 59.0937 57.1877C59.0937 50.0011 53.2415 44.1489 46.0549 44.1489H45.8072C38.6206 44.1489 32.7684 50.0011 32.7684 57.1877C32.7684 58.2362 33.6072 59.094 34.6747 59.094Z" fill="#D7FF38"/>
<path d="M41.9375 10.4678C45.091 10.4678 47.6562 13.033 47.6562 16.1865V24.1689C47.6562 25.2217 48.5089 26.0752 49.5625 26.0752C50.6161 26.0752 51.4688 25.2217 51.4688 24.1689V16.1865C51.4688 10.9313 47.1927 6.65527 41.9375 6.65527H30.5C29.4464 6.65527 28.5938 7.5088 28.5938 8.56152C28.5938 9.61425 29.4464 10.4678 30.5 10.4678H41.9375Z" fill="#D7FF38"/>
<path d="M11.4375 34.9248C10.3839 34.9248 9.53125 35.7783 9.53125 36.8311V44.8135C9.53125 50.0687 13.8073 54.3447 19.0625 54.3447H27.7933C28.8469 54.3447 29.6995 53.4912 29.6995 52.4385C29.6995 51.3857 28.8469 50.5322 27.7933 50.5322H19.0625C15.909 50.5322 13.3438 47.967 13.3438 44.8135V36.8311C13.3438 35.7783 12.4911 34.9248 11.4375 34.9248Z" fill="#D7FF38"/>
</svg>
