<svg width="44" height="44" viewBox="0 0 44 44" fill="none" xmlns="http://www.w3.org/2000/svg">
<g clip-path="url(#clip0_6_21)">
<path d="M43.0231 18.1718L37.9761 16.9306C37.6728 15.9739 37.2825 15.0461 36.8117 14.1586C37.5695 12.8972 39.162 10.2424 39.162 10.2424C39.4666 9.73509 39.386 9.08548 38.9681 8.66757L35.3225 5.02193C34.9045 4.60273 34.2562 4.5222 33.7477 4.82805L29.825 7.17836C28.9425 6.71129 28.0198 6.32483 27.0695 6.02396L25.8283 0.976938C25.6847 0.402875 25.1698 0 24.5781 0H19.4219C18.8302 0 18.3141 0.402875 18.1718 0.976852C18.1718 0.976852 17.312 4.49943 16.9318 6.02267C15.9185 6.34365 14.9391 6.76036 14.0063 7.26894L9.93893 4.82805C9.43035 4.5259 8.78333 4.60402 8.36413 5.02193L4.71848 8.66757C4.30057 9.08548 4.21996 9.73509 4.52461 10.2424L7.03983 14.4432C6.63446 15.2426 6.29458 16.0746 6.02396 16.9269L0.976938 18.1718C0.402875 18.3153 0 18.8302 0 19.4219V24.5781C0 25.1698 0.402875 25.6859 0.976852 25.8282L6.02516 27.0694C6.3311 28.0399 6.72882 28.9829 7.21102 29.8879L4.96023 33.6393C4.65558 34.1466 4.73619 34.7962 5.1541 35.2141L8.79974 38.8597C9.21645 39.2764 9.86597 39.3557 10.3745 39.0536C10.3745 39.0536 12.8985 37.5405 14.1347 36.8002C15.0298 37.2774 15.9663 37.6714 16.9319 37.9772L18.1719 43.0231C18.3141 43.5972 18.8302 44 19.4219 44H24.5781C25.1698 44 25.6847 43.5971 25.8282 43.0231L27.0682 37.9773C28.0614 37.6626 29.0181 37.256 29.9283 36.7625C31.1984 37.5241 33.7476 39.0536 33.7476 39.0536C34.2549 39.357 34.9045 39.2789 35.3224 38.8597L38.968 35.2141C39.3859 34.7962 39.4665 34.1466 39.1619 33.6393L36.8443 29.7784C37.3013 28.911 37.6802 28.0034 37.976 27.0694L43.0231 25.8282C43.5972 25.6847 44 25.1698 44 24.5781V19.4219C44 18.8302 43.5972 18.3153 43.0231 18.1718ZM22 31.0234C17.025 31.0234 12.9766 26.975 12.9766 22C12.9766 17.025 17.025 12.9766 22 12.9766C26.975 12.9766 31.0234 17.025 31.0234 22C31.0234 26.975 26.975 31.0234 22 31.0234Z" fill="#0E0E0E"/>
</g>
<defs>
<clipPath id="clip0_6_21">
<rect width="44" height="44" fill="white"/>
</clipPath>
</defs>
</svg>
