<svg width="54" height="54" viewBox="0 0 54 54" fill="none" xmlns="http://www.w3.org/2000/svg">
<path d="M48.8072 41.7787L41.1466 32.3447C40.7786 32.8746 40.2516 33.2739 39.6419 33.4848L37.2583 34.3146L35.5786 36.1941C35.3031 36.502 34.968 36.7508 34.5938 36.9258V44.3523L38.9823 49.7568C39.1183 49.9242 39.2948 50.0542 39.4952 50.1342C39.6955 50.2143 39.913 50.2418 40.1269 50.2141C40.3408 50.1865 40.5442 50.1046 40.7176 49.9763C40.891 49.848 41.0287 49.6775 41.1177 49.481L43.1911 44.9012L48.0989 43.8116C48.3095 43.7649 48.5047 43.6651 48.6659 43.5217C48.8271 43.3783 48.9489 43.1961 49.0199 42.9924C49.0909 42.7887 49.1086 42.5702 49.0714 42.3577C49.0341 42.1452 48.9432 41.9457 48.8072 41.7783V41.7787Z" fill="#0E0E0E"/>
<path d="M33.301 37.2147C33.2412 37.2147 33.1812 37.213 33.1211 37.2095L30.6021 37.0659L28.3289 38.1613C27.9147 38.3617 27.4606 38.4658 27.0004 38.4658C26.5403 38.4658 26.0862 38.3617 25.672 38.1613L23.3985 37.066L20.8778 37.2097C20.8191 37.213 20.7598 37.2147 20.7005 37.2147C20.6911 37.2147 20.6818 37.2141 20.6724 37.214V52.3121C20.6724 52.5278 20.7276 52.74 20.8326 52.9284C20.9377 53.1168 21.0892 53.2753 21.2727 53.3887C21.4562 53.5021 21.6657 53.5667 21.8812 53.5764C22.0967 53.5861 22.3111 53.5405 22.5041 53.4441L27 51.1959L31.4965 53.4441C31.6894 53.5405 31.9039 53.5861 32.1194 53.5764C32.3349 53.5667 32.5444 53.5021 32.7279 53.3887C32.9114 53.2753 33.0629 53.1168 33.1679 52.9284C33.273 52.74 33.3281 52.5278 33.3281 52.3121V37.214C33.3191 37.214 33.31 37.2147 33.301 37.2147Z" fill="#0E0E0E"/>
<path d="M36.533 33.2269L39.2256 32.2895C39.481 32.2013 39.713 32.0564 39.9042 31.8655C40.0953 31.6746 40.2406 31.4428 40.3292 31.1876L41.2678 28.5014L43.3955 26.6074C43.5979 26.4282 43.7569 26.2054 43.8604 25.9557C43.964 25.706 44.0095 25.436 43.9933 25.1662L43.8308 22.3262L45.0702 19.7646C45.1886 19.5215 45.2501 19.2546 45.2501 18.9842C45.2501 18.7137 45.1886 18.4468 45.0702 18.2037L43.831 15.642L43.9936 12.8018C44.0096 12.532 43.9642 12.262 43.8606 12.0124C43.757 11.7627 43.598 11.5398 43.3956 11.3607L41.268 9.46686L40.3294 6.78079C40.2408 6.52554 40.0955 6.29372 39.9044 6.10282C39.7132 5.91191 39.4812 5.76691 39.2258 5.67874L36.5332 4.74144L34.6348 2.61751C34.4554 2.41582 34.2326 2.25745 33.9831 2.15431C33.7337 2.05117 33.4641 2.00594 33.1946 2.02204L30.347 2.18435L27.7792 0.946993C27.5364 0.829241 27.27 0.768066 27.0001 0.768066C26.7302 0.768066 26.4638 0.829241 26.2209 0.946993L23.6525 2.18435L20.8049 2.02204C20.5354 2.00596 20.2658 2.05121 20.0163 2.15439C19.7669 2.25757 19.5441 2.41599 19.3647 2.61772L17.4663 4.74144L14.7736 5.67885C14.5184 5.76707 14.2865 5.91209 14.0955 6.10298C13.9045 6.29386 13.7593 6.52562 13.6709 6.78079L12.7322 9.46697L10.6043 11.3609C10.4019 11.5401 10.2429 11.763 10.1394 12.0126C10.0358 12.2623 9.99036 12.5323 10.0065 12.8021L10.169 15.6421L8.92983 18.2037C8.81142 18.4468 8.74988 18.7137 8.74988 18.9842C8.74988 19.2546 8.81142 19.5215 8.92983 19.7646L10.169 22.3264L10.0065 25.1665C9.99038 25.4363 10.0358 25.7063 10.1394 25.9559C10.243 26.2056 10.402 26.4285 10.6044 26.6076L12.732 28.5016L13.6707 31.1876C13.7592 31.4429 13.9045 31.6747 14.0956 31.8656C14.2868 32.0565 14.5188 32.2015 14.7742 32.2897L17.4668 33.227L19.3652 35.3509C19.5446 35.5526 19.7675 35.711 20.0169 35.8141C20.2664 35.9172 20.536 35.9625 20.8054 35.9464L23.6531 35.7841L26.2213 37.0214C26.4642 37.1392 26.7306 37.2004 27.0005 37.2004C27.2704 37.2004 27.5368 37.1392 27.7796 37.0214L30.348 35.7841L33.1957 35.9464C33.4652 35.9626 33.7348 35.9174 33.9843 35.8142C34.2338 35.711 34.4566 35.5525 34.6358 35.3507L36.533 33.2269ZM27 31.2185C24.5803 31.2185 22.2149 30.501 20.203 29.1567C18.191 27.8123 16.6229 25.9016 15.6969 23.666C14.7709 21.4305 14.5286 18.9706 15.0007 16.5973C15.4728 14.2241 16.638 12.0442 18.349 10.3331C20.06 8.62214 22.24 7.45692 24.6132 6.98486C26.9864 6.51279 29.4464 6.75507 31.6819 7.68106C33.9174 8.60706 35.8282 10.1752 37.1725 12.1871C38.5168 14.199 39.2344 16.5644 39.2344 18.9842C39.2307 22.2278 37.9405 25.3375 35.6469 27.6311C33.3534 29.9247 30.2436 31.2148 27 31.2185Z" fill="#0E0E0E"/>
<path d="M27 9.28125C25.0809 9.28125 23.2049 9.85033 21.6092 10.9165C20.0136 11.9827 18.7699 13.4981 18.0355 15.2711C17.3011 17.0442 17.1089 18.9951 17.4833 20.8774C17.8577 22.7596 18.7819 24.4885 20.1389 25.8455C21.4959 27.2025 23.2248 28.1267 25.107 28.5011C26.9892 28.8755 28.9402 28.6833 30.7132 27.9489C32.4862 27.2145 34.0017 25.9708 35.0679 24.3751C36.134 22.7795 36.7031 20.9035 36.7031 18.9844C36.7003 16.4118 35.6771 13.9454 33.8581 12.1263C32.039 10.3072 29.5726 9.28404 27 9.28125ZM29.9531 24.0469H24.8906C24.555 24.0469 24.233 23.9135 23.9957 23.6762C23.7583 23.4388 23.625 23.1169 23.625 22.7812C23.625 22.4456 23.7583 22.1237 23.9957 21.8863C24.233 21.649 24.555 21.5156 24.8906 21.5156H26.1563V16.5555L24.9418 17.7699C24.7038 18.0041 24.3829 18.1347 24.049 18.1333C23.7151 18.132 23.3953 17.9987 23.1592 17.7626C22.9231 17.5266 22.7899 17.2067 22.7886 16.8729C22.7872 16.539 22.9178 16.2181 23.152 15.9801L26.527 12.6051C26.704 12.4281 26.9295 12.3076 27.175 12.2587C27.4205 12.2099 27.6749 12.235 27.9062 12.3308C28.1375 12.4266 28.3351 12.5888 28.4742 12.7969C28.6133 13.005 28.6875 13.2497 28.6875 13.5V21.5156H29.9531C30.2888 21.5156 30.6107 21.649 30.8481 21.8863C31.0854 22.1237 31.2188 22.4456 31.2188 22.7812C31.2188 23.1169 31.0854 23.4388 30.8481 23.6762C30.6107 23.9135 30.2888 24.0469 29.9531 24.0469Z" fill="#0E0E0E"/>
</svg>
