<svg width="62" height="62" viewBox="0 0 62 62" fill="none" xmlns="http://www.w3.org/2000/svg">
<path d="M50.2889 14.4666V12.6238C50.2889 11.4183 50.0515 10.2247 49.5901 9.11096C49.1288 7.99726 48.4527 6.98532 47.6003 6.13293C46.7479 5.28054 45.736 4.60439 44.6223 4.14308C43.5086 3.68177 42.3149 3.44434 41.1095 3.44434H19.8056C18.5465 3.44485 17.301 3.70338 16.1458 4.20397C14.9906 4.70456 13.9502 5.4366 13.0889 6.35489L8.61112 11.091C7.04285 12.8001 6.1812 15.0404 6.20001 17.3599V49.376C6.20001 51.8105 7.16713 54.1454 8.88861 55.8669C10.6101 57.5883 12.9449 58.5555 15.3795 58.5555H41.1095C43.5426 58.5509 45.8748 57.5823 47.5953 55.8618C49.3158 54.1413 50.2843 51.8091 50.2889 49.376V48.2221L54.1811 44.3299C54.6947 43.8202 55.1022 43.2138 55.3801 42.5458C55.6579 41.8777 55.8007 41.1612 55.8 40.4377V19.9777C55.8 18.516 55.2194 17.1143 54.1858 16.0807C53.1523 15.0472 51.7505 14.4666 50.2889 14.4666ZM52.1317 19.9777V23.646H44.7778V19.9777C44.7778 19.4889 44.9719 19.0202 45.3175 18.6746C45.6631 18.329 46.1318 18.1349 46.6206 18.1349H50.2889C50.7776 18.1349 51.2463 18.329 51.5919 18.6746C51.9375 19.0202 52.1317 19.4889 52.1317 19.9777ZM41.1095 54.8871H15.3795C13.9178 54.8871 12.516 54.3065 11.4825 53.2729C10.449 52.2394 9.86834 50.8376 9.86834 49.376V17.3599C9.86782 15.9658 10.3973 14.6237 11.3495 13.6054L15.7756 8.86934C16.2944 8.32273 16.9196 7.88799 17.6126 7.59182C18.3056 7.29566 19.0519 7.14432 19.8056 7.14711H41.1095C42.5711 7.14711 43.9729 7.72775 45.0064 8.76128C46.0399 9.79482 46.6206 11.1966 46.6206 12.6582V14.4666C45.1589 14.4666 43.7572 15.0472 42.7236 16.0807C41.6901 17.1143 41.1095 18.516 41.1095 19.9777V40.5066C41.1088 41.2301 41.2515 41.9466 41.5294 42.6147C41.8073 43.2827 42.2148 43.8891 42.7283 44.3988L46.6206 48.2221V49.3071C46.6297 50.0366 46.4939 50.7607 46.221 51.4373C45.9481 52.1139 45.5436 52.7296 45.031 53.2487C44.5183 53.7677 43.9077 54.1799 43.2345 54.4611C42.5613 54.7424 41.839 54.8872 41.1095 54.8871ZM51.6667 41.7982L48.5322 44.9327L45.3978 41.7982C45.0587 41.4534 44.8672 40.9902 44.8639 40.5066V27.3316H52.2178V40.5066C52.2099 40.9926 52.0121 41.4562 51.6667 41.7982Z" fill="#D7FF38"/>
<path d="M15.3794 18.1348H26.4016V21.8031H15.3794V18.1348Z" fill="#D7FF38"/>
<path d="M15.3794 27.332H35.5811V31.0004H15.3794V27.332Z" fill="#D7FF38"/>
<path d="M15.3794 34.668H35.5811V38.3363H15.3794V34.668Z" fill="#D7FF38"/>
<path d="M15.3794 42.0225H35.5811V45.6908H15.3794V42.0225Z" fill="#D7FF38"/>
</svg>
