<svg width="57" height="57" viewBox="0 0 57 57" fill="none" xmlns="http://www.w3.org/2000/svg">
<g clip-path="url(#clip0_5_398)">
<path d="M45.8672 34.7344C42.2086 34.7344 38.9568 36.5086 36.9263 39.2414L26.2391 34.2761C26.5512 33.1454 26.7188 31.9553 26.7188 30.7266C26.7188 29.0067 26.3919 27.3617 25.7973 25.8504L37.6702 18.6577C39.7065 20.874 42.6272 22.2656 45.8672 22.2656C52.0059 22.2656 57 17.2714 57 11.1328C57 4.99418 52.0059 0 45.8672 0C39.7284 0 34.7344 4.99418 34.7344 11.1328C34.7344 12.4336 34.9594 13.6824 35.3712 14.8437L23.4978 22.0367C21.0458 19.1801 17.4105 17.3672 13.3594 17.3672C5.99302 17.3672 0 23.3602 0 30.7266C0 38.0929 5.99302 44.0859 13.3594 44.0859C17.9116 44.0859 21.9385 41.7967 24.3516 38.3096L35.0396 43.2752C34.8406 44.1072 34.7344 44.975 34.7344 45.8672C34.7344 52.0058 39.7284 57 45.8672 57C52.0059 57 57 52.0058 57 45.8672C57 39.7286 52.0059 34.7344 45.8672 34.7344ZM45.8672 4.45312C49.5504 4.45312 52.5469 7.44963 52.5469 11.1328C52.5469 14.816 49.5504 17.8125 45.8672 17.8125C42.184 17.8125 39.1875 14.816 39.1875 11.1328C39.1875 7.44963 42.184 4.45312 45.8672 4.45312ZM13.3594 39.6328C8.44847 39.6328 4.45312 35.6375 4.45312 30.7266C4.45312 25.8157 8.44847 21.8203 13.3594 21.8203C18.2703 21.8203 22.2656 25.8157 22.2656 30.7266C22.2656 35.6375 18.2703 39.6328 13.3594 39.6328ZM45.8672 52.5469C42.184 52.5469 39.1875 49.5504 39.1875 45.8672C39.1875 42.184 42.184 39.1875 45.8672 39.1875C49.5504 39.1875 52.5469 42.184 52.5469 45.8672C52.5469 49.5504 49.5504 52.5469 45.8672 52.5469Z" fill="#D7FF38"/>
</g>
<defs>
<clipPath id="clip0_5_398">
<rect width="57" height="57" fill="white"/>
</clipPath>
</defs>
</svg>
