<svg width="59" height="59" viewBox="0 0 59 59" fill="none" xmlns="http://www.w3.org/2000/svg">
<g clip-path="url(#clip0_5_410)">
<path d="M53.7941 24.2378C51.5319 24.2378 49.603 25.6888 48.8867 27.7084H39.9118C35.1276 27.7084 31.2353 23.8162 31.2353 19.0319C31.2353 17.7647 31.2353 7.22107 31.2353 5.3842L40.6845 11.6838L42.6097 8.79602L29.5 0.0561523L16.3904 8.7959L18.3156 11.6837L27.7647 5.3842V19.0319C27.7647 23.8162 23.8724 27.7084 19.0882 27.7084H10.1133C9.39696 25.6888 7.46813 24.2378 5.20588 24.2378C2.33536 24.2378 0 26.5732 0 29.4437C0 32.3142 2.33536 34.6496 5.20588 34.6496C7.46813 34.6496 9.39696 33.1988 10.1133 31.179H19.0882C22.4841 31.179 25.5583 29.7777 27.7647 27.5238V32.7401C27.7647 36.3421 25.5963 39.5151 22.2405 40.8237L16.2185 43.1719C14.2159 40.9128 10.7434 40.8379 8.64014 42.9411C6.61066 44.9708 6.61066 48.2734 8.64026 50.3031C9.65506 51.318 10.9882 51.8254 12.3214 51.8254C15.2928 51.8254 17.6506 49.3559 17.5193 46.3897L23.5012 44.057C25.1212 43.4253 26.5662 42.4658 27.7647 41.2406V48.8302C25.7449 49.5465 24.2941 51.4753 24.2941 53.7375C24.2941 56.608 26.6294 58.9434 29.5 58.9434C32.3706 58.9434 34.7059 56.608 34.7059 53.7375C34.7059 51.4753 33.2551 49.5464 31.2353 48.8302V41.2671C32.4237 42.4821 33.8556 43.436 35.4598 44.068L41.4794 46.4392C41.3766 49.3922 43.731 51.8254 46.6785 51.8254C48.0117 51.8254 49.3448 51.318 50.3597 50.303C52.3892 48.2733 52.3892 44.9707 50.3597 42.9409L50.3596 42.9408C48.2484 40.8293 44.7484 40.9102 42.7492 43.2091L36.7317 40.8387C33.3927 39.5238 31.2353 36.3552 31.2353 32.7663C31.2353 31.1053 31.2353 29.3859 31.2353 27.5238C33.4417 29.7777 36.516 31.179 39.9118 31.179H48.8867C49.603 33.1988 51.5319 34.6496 53.7941 34.6496C56.6648 34.6496 59 32.3142 59 29.4437C59 26.5732 56.6648 24.2378 53.7941 24.2378ZM5.20588 31.179C4.24904 31.179 3.47059 30.4006 3.47059 29.4437C3.47059 28.4869 4.24904 27.7084 5.20588 27.7084C6.16272 27.7084 6.94118 28.4869 6.94118 29.4437C6.94118 30.4006 6.16272 31.179 5.20588 31.179ZM12.3214 48.3575C11.858 48.3575 11.4222 48.177 11.0945 47.8493C10.4179 47.1726 10.4179 46.0718 11.0944 45.3951C11.4328 45.0568 11.8772 44.8877 12.3214 44.8877C13.2752 44.8877 14.0568 45.6574 14.0568 46.6222C14.0568 47.0858 13.2808 48.3575 12.3214 48.3575ZM46.6786 44.8877C47.123 44.8877 47.5673 45.0568 47.9055 45.3951C48.5821 46.0718 48.5821 47.1726 47.9056 47.8493C47.2275 48.5273 46.1296 48.5274 45.4514 47.8493C45.1237 47.5214 44.9431 47.0856 44.9431 46.6222C44.9432 45.657 45.7252 44.8877 46.6786 44.8877ZM29.5 55.4731C28.5432 55.4731 27.7647 54.6947 27.7647 53.7378C27.7647 52.781 28.5432 52.0025 29.5 52.0025C30.457 52.0025 31.2353 52.781 31.2353 53.7378C31.2353 54.6947 30.457 55.4731 29.5 55.4731ZM53.7941 31.179C52.8372 31.179 52.0588 30.4006 52.0588 29.4437C52.0588 28.4869 52.8372 27.7084 53.7941 27.7084C54.7511 27.7084 55.5294 28.4869 55.5294 29.4437C55.5294 30.4006 54.7511 31.179 53.7941 31.179Z" fill="#D7FF38"/>
</g>
<defs>
<clipPath id="clip0_5_410">
<rect width="59" height="59" fill="white"/>
</clipPath>
</defs>
</svg>
